<mxfile host="app.diagrams.net" agent="Mozilla/5.0 (Macintosh; Intel Mac OS X 10_15_7) AppleWebKit/537.36 (KHTML, like Gecko) Chrome/131.0.0.0 Safari/537.36" version="26.0.4">
  <diagram name="第 1 页" id="zAd_wPdVps35s6MXC-Z_">
    <mxGraphModel dx="2390" dy="2437" grid="1" gridSize="10" guides="1" tooltips="1" connect="1" arrows="1" fold="1" page="1" pageScale="1" pageWidth="827" pageHeight="1169" math="0" shadow="0">
      <root>
        <mxCell id="0" />
        <mxCell id="1" parent="0" />
        <mxCell id="LawNj0czzO5UbxQvlDM8-12" style="edgeStyle=orthogonalEdgeStyle;rounded=0;orthogonalLoop=1;jettySize=auto;html=1;exitX=1;exitY=0.5;exitDx=0;exitDy=0;entryX=0;entryY=0.5;entryDx=0;entryDy=0;" edge="1" parent="1" source="LawNj0czzO5UbxQvlDM8-6" target="LawNj0czzO5UbxQvlDM8-10">
          <mxGeometry relative="1" as="geometry" />
        </mxCell>
        <mxCell id="LawNj0czzO5UbxQvlDM8-6" value="&lt;span style=&quot;font-family: &amp;quot;Times New Roman&amp;quot;; font-size: 25px; text-align: left;&quot;&gt;请根据用户输入预测用户意图：X&lt;/span&gt;" style="rounded=1;whiteSpace=wrap;html=1;fillColor=light-dark(#cbe2f5, #ededed);" vertex="1" parent="1">
          <mxGeometry x="190" y="360" width="430" height="90" as="geometry" />
        </mxCell>
        <mxCell id="m3Y7h9TqKD-D8q7Xrxun-1" value="" style="rounded=1;whiteSpace=wrap;html=1;" parent="1" vertex="1">
          <mxGeometry x="610" width="710" height="140" as="geometry" />
        </mxCell>
        <mxCell id="m3Y7h9TqKD-D8q7Xrxun-2" value="" style="image;html=1;image=img/lib/clip_art/people/Suit_Man_Blue_128x128.png" parent="1" vertex="1">
          <mxGeometry x="600" y="10" width="140" height="110" as="geometry" />
        </mxCell>
        <mxCell id="m3Y7h9TqKD-D8q7Xrxun-3" value="&lt;font face=&quot;Times New Roman&quot; style=&quot;font-size: 25px;&quot;&gt;X: 请帮我播放安和桥。&lt;/font&gt;" style="text;html=1;align=left;verticalAlign=middle;whiteSpace=wrap;rounded=0;fontSize=30;" parent="1" vertex="1">
          <mxGeometry x="756" y="25" width="381" height="30" as="geometry" />
        </mxCell>
        <mxCell id="m3Y7h9TqKD-D8q7Xrxun-5" value="&lt;font face=&quot;Times New Roman&quot;&gt;&lt;span style=&quot;font-size: 24px;&quot;&gt;歌名：安和桥&lt;/span&gt;&lt;/font&gt;" style="text;html=1;align=left;verticalAlign=middle;whiteSpace=wrap;rounded=0;fontSize=30;" parent="1" vertex="1">
          <mxGeometry x="430" y="-150" width="600" height="30" as="geometry" />
        </mxCell>
        <mxCell id="m3Y7h9TqKD-D8q7Xrxun-7" value="&lt;font face=&quot;Times New Roman&quot; style=&quot;font-size: 24px;&quot;&gt;Slot Filling&lt;/font&gt;" style="text;html=1;align=center;verticalAlign=middle;whiteSpace=wrap;rounded=0;fontSize=30;" parent="1" vertex="1">
          <mxGeometry x="170" y="-150" width="140" height="30" as="geometry" />
        </mxCell>
        <mxCell id="m3Y7h9TqKD-D8q7Xrxun-8" value="&lt;span style=&quot;&quot;&gt;&lt;font face=&quot;Times New Roman&quot; style=&quot;font-size: 24px;&quot;&gt;Please help me check the current stock price of Apple.&lt;/font&gt;&lt;/span&gt;" style="text;html=1;align=left;verticalAlign=middle;whiteSpace=wrap;rounded=0;fontSize=30;" parent="1" vertex="1">
          <mxGeometry x="756" y="70" width="584" height="30" as="geometry" />
        </mxCell>
        <mxCell id="LawNj0czzO5UbxQvlDM8-1" value="&lt;font style=&quot;font-size: 30px;&quot;&gt;Step2: Add intent classification prompt&lt;/font&gt;" style="text;html=1;align=center;verticalAlign=middle;whiteSpace=wrap;rounded=0;" vertex="1" parent="1">
          <mxGeometry x="130" y="210" width="600" height="30" as="geometry" />
        </mxCell>
        <mxCell id="LawNj0czzO5UbxQvlDM8-2" value="&lt;font style=&quot;font-size: 30px;&quot;&gt;Step1:User input X&lt;/font&gt;" style="text;html=1;align=center;verticalAlign=middle;whiteSpace=wrap;rounded=0;" vertex="1" parent="1">
          <mxGeometry x="640" y="-50" width="600" height="30" as="geometry" />
        </mxCell>
        <mxCell id="LawNj0czzO5UbxQvlDM8-3" value="&lt;font style=&quot;font-size: 30px;&quot; face=&quot;Times New Roman&quot;&gt;Intent Prompt Template&lt;/font&gt;" style="rounded=1;whiteSpace=wrap;html=1;fillColor=light-dark(#efefef, #ededed);" vertex="1" parent="1">
          <mxGeometry x="254" y="260" width="320" height="70" as="geometry" />
        </mxCell>
        <mxCell id="LawNj0czzO5UbxQvlDM8-4" value="&lt;font style=&quot;font-size: 30px;&quot; face=&quot;Times New Roman&quot;&gt;Slot Prediction Prompt Template&lt;/font&gt;" style="rounded=1;whiteSpace=wrap;html=1;fillColor=light-dark(#efefef, #ededed);" vertex="1" parent="1">
          <mxGeometry x="205" y="540" width="410" height="70" as="geometry" />
        </mxCell>
        <mxCell id="LawNj0czzO5UbxQvlDM8-5" value="&lt;font style=&quot;font-size: 30px;&quot; face=&quot;Times New Roman&quot;&gt;Slot Filling Prompt Template&lt;/font&gt;" style="rounded=1;whiteSpace=wrap;html=1;fillColor=light-dark(#efefef, #ededed);" vertex="1" parent="1">
          <mxGeometry x="215" y="790" width="370" height="70" as="geometry" />
        </mxCell>
        <mxCell id="LawNj0czzO5UbxQvlDM8-10" value="&lt;font style=&quot;font-size: 40px;&quot; face=&quot;Times New Roman&quot;&gt;PLM&lt;/font&gt;" style="rounded=1;whiteSpace=wrap;html=1;fillColor=light-dark(#efefef, #ededed);" vertex="1" parent="1">
          <mxGeometry x="840" y="220" width="270" height="730" as="geometry" />
        </mxCell>
        <mxCell id="LawNj0czzO5UbxQvlDM8-13" value="&lt;font face=&quot;Times New Roman&quot;&gt;&lt;span style=&quot;font-size: 25px; text-align: left;&quot;&gt;ICx=&lt;/span&gt;&lt;span style=&quot;font-size: 24px; text-align: left;&quot;&gt;播放音乐 (PlayMusic)&lt;/span&gt;&lt;/font&gt;" style="rounded=1;whiteSpace=wrap;html=1;fillColor=light-dark(#cbe2f5, #ededed);" vertex="1" parent="1">
          <mxGeometry x="1330" y="220" width="430" height="180" as="geometry" />
        </mxCell>
        <mxCell id="LawNj0czzO5UbxQvlDM8-14" style="edgeStyle=orthogonalEdgeStyle;rounded=0;orthogonalLoop=1;jettySize=auto;html=1;exitX=1;exitY=0.5;exitDx=0;exitDy=0;entryX=0.023;entryY=0.581;entryDx=0;entryDy=0;entryPerimeter=0;" edge="1" parent="1" source="LawNj0czzO5UbxQvlDM8-10" target="LawNj0czzO5UbxQvlDM8-13">
          <mxGeometry relative="1" as="geometry" />
        </mxCell>
        <mxCell id="LawNj0czzO5UbxQvlDM8-15" value="&lt;span style=&quot;font-family: &amp;quot;Times New Roman&amp;quot;; font-size: 25px; text-align: left;&quot;&gt;请根据用户意图和用户输入预测具体槽位，用户的意图为ICx：X&lt;/span&gt;" style="rounded=1;whiteSpace=wrap;html=1;fillColor=light-dark(#d5ebd0, #ededed);" vertex="1" parent="1">
          <mxGeometry x="185" y="630" width="430" height="80" as="geometry" />
        </mxCell>
        <mxCell id="LawNj0czzO5UbxQvlDM8-16" value="&lt;font style=&quot;font-size: 30px;&quot;&gt;Step3: Add slot prediction prompt with ICx&lt;/font&gt;" style="text;html=1;align=center;verticalAlign=middle;whiteSpace=wrap;rounded=0;" vertex="1" parent="1">
          <mxGeometry x="85" y="490" width="690" height="30" as="geometry" />
        </mxCell>
        <mxCell id="LawNj0czzO5UbxQvlDM8-18" value="&lt;font style=&quot;font-size: 30px;&quot;&gt;Step4: Add slot filling prompt with ICx&lt;/font&gt;" style="text;html=1;align=center;verticalAlign=middle;whiteSpace=wrap;rounded=0;" vertex="1" parent="1">
          <mxGeometry x="90" y="740" width="690" height="30" as="geometry" />
        </mxCell>
        <mxCell id="LawNj0czzO5UbxQvlDM8-20" value="&lt;span style=&quot;font-family: &amp;quot;Times New Roman&amp;quot;; font-size: 25px; text-align: left;&quot;&gt;请预测出用户输入的具体，用户的意图为ICx：X&lt;/span&gt;" style="rounded=1;whiteSpace=wrap;html=1;fillColor=light-dark(#fff1c8, #ededed);" vertex="1" parent="1">
          <mxGeometry x="190" y="880" width="430" height="80" as="geometry" />
        </mxCell>
        <mxCell id="LawNj0czzO5UbxQvlDM8-21" value="&lt;font face=&quot;Times New Roman&quot;&gt;&lt;span style=&quot;font-size: 25px; text-align: left;&quot;&gt;SPx=歌名&lt;/span&gt;&lt;span style=&quot;font-size: 24px; text-align: left;&quot;&gt;&amp;nbsp;(SongName)&lt;/span&gt;&lt;/font&gt;" style="rounded=1;whiteSpace=wrap;html=1;fillColor=light-dark(#d5ebd0, #ededed);" vertex="1" parent="1">
          <mxGeometry x="1340" y="485" width="430" height="180" as="geometry" />
        </mxCell>
      </root>
    </mxGraphModel>
  </diagram>
</mxfile>
